<svg width="18" height="18" viewBox="0 0 18 18" fill="none" xmlns="http://www.w3.org/2000/svg">
<path d="M16.5802 13.3435L13.3418 11.1836C12.9308 10.9117 12.3799 11.0012 12.0761 11.3892L11.1328 12.6022C11.0115 12.762 10.7912 12.8084 10.6158 12.711L10.4363 12.612C9.84149 12.2878 9.10135 11.8841 7.6101 10.3922C6.11885 8.90033 5.71438 8.15957 5.39015 7.56578L5.29176 7.38632C5.19299 7.21096 5.23848 6.98963 5.3984 6.86742L6.61047 5.92431C6.99828 5.62043 7.08786 5.06966 6.81631 4.65853L4.65663 1.41984C4.37833 1.00119 3.81997 0.875511 3.38913 1.13452L2.03492 1.94805C1.60943 2.19822 1.29725 2.60338 1.16387 3.07862C0.676219 4.85555 1.04307 7.92225 5.56028 12.4403C9.15362 16.0336 11.8287 17 13.6674 17C14.0905 17.0018 14.512 16.9467 14.9205 16.8362C15.3958 16.703 15.801 16.3908 16.051 15.9651L16.8653 14.6116C17.1247 14.1807 16.9991 13.6219 16.5802 13.3435ZM16.4059 14.338L15.5934 15.6923C15.4139 15.9996 15.1225 16.2255 14.7802 16.3227C13.1399 16.7731 10.2742 16.4 5.93753 12.063C1.60083 7.72601 1.22786 4.86036 1.6782 3.21971C1.77556 2.87698 2.00171 2.58516 2.30929 2.40536L3.6635 1.59289C3.85044 1.4804 4.09278 1.53493 4.21354 1.7166L5.38671 3.47806L6.37138 4.95501C6.4893 5.13334 6.45055 5.37235 6.28233 5.50431L5.06998 6.44743C4.70103 6.72956 4.59567 7.24005 4.82282 7.64521L4.91909 7.82013C5.25985 8.44515 5.68351 9.22268 7.23022 10.7692C8.77693 12.3158 9.55416 12.7395 10.1788 13.0803L10.354 13.1768C10.7591 13.4039 11.2696 13.2986 11.5517 12.9296L12.4948 11.7172C12.6267 11.549 12.8656 11.5103 13.044 11.6281L16.2822 13.788C16.464 13.9086 16.5185 14.1511 16.4059 14.338Z" fill="#E6E6E6" stroke="#E6E6E6" stroke-width="0.5"/>
</svg>
